<?xml version="1.0" encoding="UTF-8" standalone="no"?>
<!DOCTYPE svg PUBLIC "-//W3C//DTD SVG 1.1//EN" "http://www.w3.org/Graphics/SVG/1.1/DTD/svg11.dtd">
<svg width="100%" height="100%" viewBox="0 0 512 512" version="1.1" xmlns="http://www.w3.org/2000/svg" xmlns:xlink="http://www.w3.org/1999/xlink" xml:space="preserve" xmlns:serif="http://www.serif.com/" style="fill-rule:evenodd;clip-rule:evenodd;stroke-linejoin:round;stroke-miterlimit:2;">
    <g transform="matrix(0.847854,0,0,0.847854,38.685,37.5118)">
        <rect x="48.729" y="50.113" width="415.166" height="415.166" style="fill:rgb(101,178,148);"/>
    </g>
    <g transform="matrix(0.466164,0,0,0.466164,-180.644,-0.216451)">
        <g>
            <path d="M1122.8,649.7C1120.9,650 1119,650.6 1117.2,650.6C1118.4,642.3 1119.6,629.2 1119.9,618.1L1029.2,618.1L1015.8,714.1L1084.8,714.1C1085.3,716.2 1084.8,718.4 1083.7,720.8L1014.8,720.8L1001.3,816.9C1014.2,818 1028.8,818.6 1038.9,818.6C1038.9,820.4 1038.3,822.2 1038,824.1L960.6,824.1C960.3,822.3 960,820.4 960,818.6C968.8,818.6 982.4,818 993.6,816.4L1021.3,619.2C1010.3,617.5 997.2,616.9 989.9,616.9C989.9,615.1 990.5,613.3 990.8,611.4L1128.2,611.4L1127.2,618.1L1122.8,649.7Z" style="fill:white;fill-rule:nonzero;"/>
            <path d="M1235.1,669.1C1260.2,669.1 1275.9,687.4 1275.9,719.4C1275.9,761.9 1247.2,827 1185.4,827C1168.5,827 1157.8,822.1 1150.8,819.1L1140.7,890.8L1133.4,890.8L1143.7,817L1156.4,726.8C1159.3,705.9 1160.5,688.3 1160.9,679.3C1151.6,682.3 1141.8,684 1131.5,684C1131.4,682.5 1131.3,681 1131.5,679.4C1138.4,678.8 1153.7,676.7 1167,669.1L1167.9,669.1C1167.9,669.1 1167.9,696.7 1163.8,725.9C1180.1,691.9 1207.1,669.1 1235.1,669.1ZM1185,821C1240.8,821 1268,760.9 1268,719.3C1268,691.2 1255,675.8 1233.9,675.8C1200.5,675.8 1166.6,714.5 1158,768.5L1151.9,812.3C1158.3,815.5 1168.1,821 1185,821Z" style="fill:white;fill-rule:nonzero;"/>
        </g>
    </g>
</svg>
